<?xml version="1.0" encoding="utf-8"?>
<svg id="master-artboard" viewBox="0 0 411.3615417480469 181.02476501464844" version="1.1" xmlns="http://www.w3.org/2000/svg" x="0px" y="0px" style="enable-background:new 0 0 1400 980;" width="411.3615417480469px" height="181.02476501464844px"><rect id="ee-background" x="0" y="0" width="411.3615417480469" height="181.02476501464844" style="fill: white; fill-opacity: 0; pointer-events: none;"/>

<path class="st8" d="M637.2,149.4v-7.3c0-7.5,6.1-13.5,13.5-13.5h148.9c7.5,0,13.5,6.1,13.5,13.5v3.7L637.2,149.4z" style="fill: rgb(254, 220, 185);" transform="matrix(1, 0, 0, 1, -503.27964782714844, -138.88727569580078)"/><path class="st1" d="M634.5,152.1v-10c0-8.9,7.3-16.2,16.2-16.2h79c1.5,0,2.7,1.2,2.7,2.7c0,1.5-1.2,2.7-2.7,2.7h-79&#10;&#9;&#9;&#9;c-6,0-10.8,4.9-10.8,10.8v4.5l170.5-3.4v-1.1c0-6-4.9-10.8-10.8-10.8h-29.8c-1.5,0-2.7-1.2-2.7-2.7c0-1.5,1.2-2.7,2.7-2.7h29.8&#10;&#9;&#9;&#9;c8.9,0,16.2,7.3,16.2,16.2v6.4L634.5,152.1z M813.2,145.8L813.2,145.8L813.2,145.8z" style="fill: rgb(65, 40, 19);" transform="matrix(1, 0, 0, 1, -503.27964782714844, -138.88727569580078)"/><path d="M 564.099976 243 H 661.199974 V 282 H 564.099976 V 243 Z" class="st9" style="fill: rgb(52, 92, 84);" transform="matrix(1, 0, 0, 1, -503.27964782714844, -138.88727569580078)"/><path class="st1" d="M663.8,284.7H561.4v-44.4h102.5V284.7z M566.8,279.3h91.7v-33.6h-91.7V279.3z" style="fill: rgb(65, 40, 19);" transform="matrix(1, 0, 0, 1, -503.27964782714844, -138.88727569580078)"/><path d="M 629.199987 287.100006 A 28.4 28.4 0 0 1 600.799988 315.500006 A 28.4 28.4 0 0 1 572.399988 287.100006 A 28.4 28.4 0 0 1 600.799988 258.700006 A 28.4 28.4 0 0 1 629.199987 287.100006 Z" class="st4" style="fill: rgb(120, 120, 121);" transform="matrix(1, 0, 0, 1, -503.27964782714844, -138.88727569580078)"/><path class="st1" d="M600.8,318.2c-17.1,0-31.1-13.9-31.1-31.1s13.9-31.1,31.1-31.1c17.1,0,31.1,13.9,31.1,31.1&#10;&#9;&#9;&#9;S617.9,318.2,600.8,318.2z M600.8,261.5c-14.2,0-25.7,11.5-25.7,25.7c0,14.2,11.5,25.7,25.7,25.7c14.2,0,25.7-11.5,25.7-25.7&#10;&#9;&#9;&#9;C626.5,273,615,261.5,600.8,261.5z" style="fill: rgb(65, 40, 19);" transform="matrix(1, 0, 0, 1, -503.27964782714844, -138.88727569580078)"/><path d="M 620.899988 287.100006 A 20.1 20.1 0 0 1 600.799988 307.200006 A 20.1 20.1 0 0 1 580.699987 287.100006 A 20.1 20.1 0 0 1 600.799988 267.000006 A 20.1 20.1 0 0 1 620.899988 287.100006 Z" class="st10" style="fill: rgb(166, 165, 165);" transform="matrix(1, 0, 0, 1, -503.27964782714844, -138.88727569580078)"/><path class="st1" d="M600.8,309.9c-12.6,0-22.8-10.2-22.8-22.8s10.2-22.8,22.8-22.8c12.5,0,22.8,10.2,22.8,22.8&#10;&#9;&#9;&#9;S613.4,309.9,600.8,309.9z M600.8,269.8c-9.6,0-17.4,7.8-17.4,17.4s7.8,17.4,17.4,17.4c9.6,0,17.4-7.8,17.4-17.4&#10;&#9;&#9;&#9;S610.4,269.8,600.8,269.8z" style="fill: rgb(65, 40, 19);" transform="matrix(1, 0, 0, 1, -503.27964782714844, -138.88727569580078)"/><path class="st1" d="M600.8,301.6c-8,0-14.5-6.5-14.5-14.5s6.5-14.5,14.5-14.5c8,0,14.5,6.5,14.5,14.5S608.8,301.6,600.8,301.6z&#10;&#9;&#9;&#9; M600.8,278c-5,0-9.1,4.1-9.1,9.1s4.1,9.1,9.1,9.1c5,0,9.1-4.1,9.1-9.1S605.8,278,600.8,278z" style="fill: rgb(65, 40, 19);" transform="matrix(1, 0, 0, 1, -503.27964782714844, -138.88727569580078)"/><path d="M 764.599976 254.899994 H 861.699974 V 281.999994 H 764.599976 V 254.899994 Z" class="st9" style="fill: rgb(52, 92, 84);" transform="matrix(1, 0, 0, 1, -503.27964782714844, -138.88727569580078)"/><path class="st1" d="M864.4,284.7H761.9v-32.5h102.5V284.7z M767.3,279.3H859v-21.7h-91.7V279.3z" style="fill: rgb(65, 40, 19);" transform="matrix(1, 0, 0, 1, -503.27964782714844, -138.88727569580078)"/><path d="M 848.4 287.100006 A 28.4 28.4 0 0 1 820 315.500006 A 28.4 28.4 0 0 1 791.6 287.100006 A 28.4 28.4 0 0 1 820 258.700006 A 28.4 28.4 0 0 1 848.4 287.100006 Z" class="st4" style="fill: rgb(120, 120, 121);" transform="matrix(1, 0, 0, 1, -503.27964782714844, -138.88727569580078)"/><path class="st1" d="M820,318.2c-17.1,0-31.1-13.9-31.1-31.1s13.9-31.1,31.1-31.1c17.1,0,31.1,13.9,31.1,31.1&#10;&#9;&#9;&#9;S837.1,318.2,820,318.2z M820,261.5c-14.2,0-25.7,11.5-25.7,25.7c0,14.2,11.5,25.7,25.7,25.7c14.2,0,25.7-11.5,25.7-25.7&#10;&#9;&#9;&#9;C845.6,273,834.1,261.5,820,261.5z" style="fill: rgb(65, 40, 19);" transform="matrix(1, 0, 0, 1, -503.27964782714844, -138.88727569580078)"/><path d="M 840.1 287.100006 A 20.1 20.1 0 0 1 820 307.200006 A 20.1 20.1 0 0 1 799.9 287.100006 A 20.1 20.1 0 0 1 820 267.000006 A 20.1 20.1 0 0 1 840.1 287.100006 Z" class="st10" style="fill: rgb(166, 165, 165);" transform="matrix(1, 0, 0, 1, -503.27964782714844, -138.88727569580078)"/><path class="st1" d="M820,309.9c-12.5,0-22.8-10.2-22.8-22.8s10.2-22.8,22.8-22.8c12.6,0,22.8,10.2,22.8,22.8&#10;&#9;&#9;&#9;S832.5,309.9,820,309.9z M820,269.8c-9.6,0-17.4,7.8-17.4,17.4s7.8,17.4,17.4,17.4s17.4-7.8,17.4-17.4S829.5,269.8,820,269.8z" style="fill: rgb(65, 40, 19);" transform="matrix(1, 0, 0, 1, -503.27964782714844, -138.88727569580078)"/><path class="st1" d="M820,301.6c-8,0-14.5-6.5-14.5-14.5s6.5-14.5,14.5-14.5c8,0,14.5,6.5,14.5,14.5S827.9,301.6,820,301.6z&#10;&#9;&#9;&#9; M820,278c-5,0-9.1,4.1-9.1,9.1s4.1,9.1,9.1,9.1c5,0,9.1-4.1,9.1-9.1S825,278,820,278z" style="fill: rgb(65, 40, 19);" transform="matrix(1, 0, 0, 1, -503.27964782714844, -138.88727569580078)"/><path class="st11" d="M884.2,196.2c-1-11.9,0-24.6-8.5-33c-15.5-15.3-39.5-16.9-61.3-17.4c-75.5-1.7-151.1-2.1-226.3,4.4&#10;&#9;&#9;&#9;c-10.9,0.9-22.9,2.6-30.9,9.6c-1.6,1.4-2.5,3.5-2,5.6c0.1,0.5,0.1,1.1,0,1.9c-0.2,1.4-0.7,2.7-1.5,3.8&#10;&#9;&#9;&#9;c-18.4,26.6-33.8,57.6-31.6,89.9c0.5,7,0.9,13.5,1.5,20.6c1.2,0.2,2.2,0.4,3.4,0.5h41.1l5.2-12.9c3.1-7.7,10.5-12.7,18.8-12.7&#10;&#9;&#9;&#9;h17.5c8.9,0,16.8,5.8,19.4,14.3l3.5,11.4H778l5.1-8.9c1.9-3.4,5.5-5.5,9.4-5.5h54.4c3.8,0,7.3,2,9.3,5.2l5.6,9.2h25.2&#10;&#9;&#9;&#9;C890.3,253.6,886.6,224.7,884.2,196.2z" style="fill: rgb(255, 255, 255);" transform="matrix(1, 0, 0, 1, -503.27964782714844, -138.88727569580078)"/><path class="st1" d="M889.3,284.7h-29.1l-6.4-10.5c-1.5-2.4-4.1-3.9-6.9-3.9h-54.4c-2.9,0-5.6,1.6-7.1,4.1l-5.9,10.3H630.3&#10;&#9;&#9;&#9;l-4.1-13.3c-2.3-7.4-9-12.4-16.8-12.4h-17.5c-7.2,0-13.6,4.3-16.3,11.1l-5.9,14.6l-43.3,0c-0.6-0.1-1.2-0.2-1.8-0.3&#10;&#9;&#9;&#9;c-0.5-0.1-1.1-0.2-1.6-0.3l-2.1-0.3l-0.2-2.1c-0.6-7-1.1-13.6-1.5-20.5l0-0.1c-1.8-27.7,8.7-57.7,32.1-91.6c0.6-0.8,0.9-1.7,1-2.6&#10;&#9;&#9;&#9;c0.1-0.7,0.1-0.9,0.1-0.9c-0.7-2.9,0.4-6.1,2.9-8.2c8.4-7.2,20.5-9.2,32.5-10.2c77.3-6.7,154.6-6,226.6-4.4&#10;&#9;&#9;&#9;c23.2,0.5,47.2,2.4,63.2,18.2c2.4,2.3,4.2,5.1,5.5,8.3c0.6,1.4-0.1,3-1.4,3.5c-1.4,0.6-3-0.1-3.5-1.4c-1.1-2.6-2.5-4.7-4.4-6.5&#10;&#9;&#9;&#9;c-14.5-14.4-37.4-16.1-59.5-16.6c-71.9-1.7-149-2.3-226,4.4c-11,0.9-22.2,2.7-29.4,8.9c-0.9,0.8-1.4,1.9-1.1,2.9&#10;&#9;&#9;&#9;c0.2,1,0.2,2,0,2.8c-0.2,1.7-0.9,3.5-2,5c-22.7,32.9-32.9,61.8-31.2,88.2l0,0.1c0.4,6.2,0.8,12.1,1.3,18.3&#10;&#9;&#9;&#9;c0.4,0.1,0.7,0.1,1.1,0.2h39.1l4.5-11.2c3.5-8.8,11.9-14.4,21.3-14.4h17.5c10.1,0,19,6.5,22,16.2l2.9,9.5h142.1l4.3-7.6&#10;&#9;&#9;&#9;c2.4-4.2,6.9-6.8,11.7-6.8h54.4c4.7,0,9.1,2.5,11.6,6.5l4.8,7.9h21.2c2.5-23.2,0.3-47-1.8-70c-0.4-4.3-0.8-8.6-1.1-12.9&#10;&#9;&#9;&#9;c-0.1-1.5,1-2.8,2.5-2.9c1.5-0.1,2.8,1,2.9,2.5c0.4,4.3,0.7,8.6,1.1,12.8c2.2,24.1,4.4,49.1,1.5,73.5L889.3,284.7z" style="fill: rgb(65, 40, 19);" transform="matrix(1, 0, 0, 1, -503.27964782714844, -138.88727569580078)"/><path class="st12" d="M588,150.2c-11,0.9-23.2,2.7-31.2,9.8c-1,0.9-0.3,2.5,1,2.4c3.8-0.2,7.7-0.1,11.6-0.1&#10;&#9;&#9;&#9;c10.1,0.2,20.2,0.3,30.4,0.5h272.4c1.1,0,1.6-1.4,0.8-2.1c-15.5-13.1-38.1-14.5-58.6-14.9C738.9,144.1,663.2,143.7,588,150.2z" style="fill: rgb(230, 231, 232);" transform="matrix(1, 0, 0, 1, -503.27964782714844, -138.88727569580078)"/><path class="st1" d="M872.2,165.6H599.8c-5.1-0.1-10.2-0.2-15.2-0.3c-5-0.1-10.1-0.1-15.2-0.3c-3.7-0.1-7.6-0.2-11.4,0.1&#10;&#9;&#9;&#9;c-1.8,0.1-3.3-0.9-4-2.5c-0.7-1.6-0.2-3.5,1.1-4.6c8.4-7.4,20.7-9.4,32.7-10.4c77.3-6.7,154.6-6,226.6-4.4&#10;&#9;&#9;&#9;c21.8,0.5,44.4,2.1,60.3,15.6c1.3,1.1,1.7,2.7,1.1,4.3C875.3,164.5,873.9,165.6,872.2,165.6z M563.4,159.5c2.1,0,4.1,0,6.1,0.1&#10;&#9;&#9;&#9;c5.1,0.1,10.2,0.2,15.2,0.3c5,0.1,10.1,0.1,15.2,0.3l267.9,0c-14.4-9.9-34.3-11.2-53.5-11.6c-71.9-1.7-149-2.3-226,4.4l-0.2-2.7&#10;&#9;&#9;&#9;l0.2,2.7c-9.6,0.8-19.2,2.2-26.3,6.7C562.4,159.6,562.9,159.5,563.4,159.5z" style="fill: rgb(65, 40, 19);" transform="matrix(1, 0, 0, 1, -503.27964782714844, -138.88727569580078)"/><path class="st17" d="M884.9,204.1c-97,0.8-194.1,1.6-291.1,2.4c-18.2,0.2-37.5,0.6-52.7,10.6c-7,4.6-12.6,10.9-17.3,17.8&#10;&#9;&#9;&#9;c-1.7,8.5-2.4,17.2-1.9,26c0.5,7,0.9,13.5,1.5,20.6c1.2,0.2,2.2,0.4,3.4,0.5h41.1l5.2-12.9c3.1-7.7,10.5-12.7,18.8-12.7h17.5&#10;&#9;&#9;&#9;c8.9,0,16.8,5.8,19.4,14.3l3.5,11.4H778l5.1-8.9c1.9-3.4,5.5-5.5,9.4-5.5h54.4c3.8,0,7.3,2,9.3,5.2l5.6,9.2h25.2&#10;&#9;&#9;&#9;C890,256.2,887.2,230,884.9,204.1z" style="fill: rgb(200, 82, 55);" transform="matrix(1, 0, 0, 1, -503.27964782714844, -138.88727569580078)"/><path class="st1" d="M889.3,284.7h-29.1l-6.4-10.5c-1.5-2.4-4.1-3.9-6.9-3.9h-54.4c-2.9,0-5.6,1.6-7.1,4.1l-5.9,10.3H630.3&#10;&#9;&#9;&#9;l-4.1-13.3c-2.3-7.4-9-12.4-16.8-12.4h-17.5c-7.2,0-13.6,4.3-16.3,11.1l-5.9,14.6l-43.3,0c-0.6-0.1-1.2-0.2-1.8-0.3&#10;&#9;&#9;&#9;c-0.5-0.1-1.1-0.2-1.6-0.3l-2.1-0.3l-0.2-2.1c-0.6-7-1.1-13.6-1.5-20.5l0-0.1c-0.6-8.6,0.1-17.6,1.9-26.7l0.1-0.5l0.3-0.5&#10;&#9;&#9;&#9;c5.6-8.2,11.5-14.2,18-18.6c16.4-10.7,37.3-10.9,54.2-11.1l15.2-0.1c1.5,0,2.7,1.2,2.7,2.7c0,1.5-1.2,2.7-2.7,2.7l-15.2,0.1&#10;&#9;&#9;&#9;c-16.1,0.1-36.2,0.3-51.3,10.2c-5.9,3.8-11.2,9.3-16.2,16.6c-1.7,8.4-2.2,16.8-1.7,24.7l0,0.1c0.4,6.2,0.8,12.1,1.3,18.3&#10;&#9;&#9;&#9;c0.4,0.1,0.7,0.1,1.1,0.2h39.1l4.5-11.2c3.5-8.8,11.9-14.4,21.3-14.4h17.5c10.1,0,19,6.5,22,16.2l2.9,9.5h142.1l4.3-7.6&#10;&#9;&#9;&#9;c2.4-4.2,6.9-6.8,11.7-6.8h54.4c4.7,0,9.1,2.5,11.6,6.5l4.8,7.9h21.2c2.5-23.2,0.3-47-1.8-70l-0.2-2.5l-230.5,1.9c0,0,0,0,0,0&#10;&#9;&#9;&#9;c-1.5,0-2.7-1.2-2.7-2.7c0-1.5,1.2-2.7,2.7-2.7l235.5-2l0.7,7.5c2.2,24.1,4.4,49.1,1.5,73.5L889.3,284.7z" style="fill: rgb(65, 40, 19);" transform="matrix(1, 0, 0, 1, -503.27964782714844, -138.88727569580078)"/><path d="M 533.899988 246.899994 A 5.1 11.9 0 0 1 528.799988 258.799994 A 5.1 11.9 0 0 1 523.699988 246.899994 A 5.1 11.9 0 0 1 528.799988 234.999994 A 5.1 11.9 0 0 1 533.899988 246.899994 Z" class="st14" style="fill: rgb(253, 245, 166);" transform="matrix(1, 0, 0, 1, -503.27964782714844, -138.88727569580078)"/><path class="st1" d="M528.8,261.5c-5.1,0-7.8-7.3-7.8-14.6c0-7.3,2.7-14.6,7.8-14.6c5.1,0,7.8,7.3,7.8,14.6&#10;&#9;&#9;&#9;C536.6,254.1,533.9,261.5,528.8,261.5z M528.8,237.7c-0.8,0.7-2.4,3.8-2.4,9.1c0,5.3,1.6,8.5,2.4,9.1c0.8-0.7,2.4-3.8,2.4-9.1&#10;&#9;&#9;&#9;C531.2,241.5,529.6,238.4,528.8,237.7z" style="fill: rgb(65, 40, 19);" transform="matrix(1, 0, 0, 1, -503.27964782714844, -138.88727569580078)"/><path d="M 538.900024 226.800003 A 2.5 6 0 0 1 536.400024 232.800003 A 2.5 6 0 0 1 533.900024 226.800003 A 2.5 6 0 0 1 536.400024 220.800003 A 2.5 6 0 0 1 538.900024 226.800003 Z" class="st1" style="fill: rgb(65, 40, 19);" transform="matrix(1, 0, 0, 1, -503.27964782714844, -138.88727569580078)"/><path class="st15" d="M792.2,197.5h-27.9c-3,0-5.5-2.5-5.5-5.5v-15.8c0-3,2.5-5.5,5.5-5.5h27.9c3,0,5.5,2.5,5.5,5.5V192&#10;&#9;&#9;&#9;C797.7,195,795.3,197.5,792.2,197.5z" style="fill: rgb(214, 238, 239);" transform="matrix(1, 0, 0, 1, -503.27964782714844, -138.88727569580078)"/><path class="st15" d="M738.7,197.5h-27.9c-3,0-5.5-2.5-5.5-5.5v-15.8c0-3,2.5-5.5,5.5-5.5h27.9c3,0,5.5,2.5,5.5,5.5V192&#10;&#9;&#9;&#9;C744.2,195,741.8,197.5,738.7,197.5z" style="fill: rgb(214, 238, 239);" transform="matrix(1, 0, 0, 1, -503.27964782714844, -138.88727569580078)"/><path class="st1" d="M738.7,200.2h-27.9c-4.5,0-8.2-3.7-8.2-8.2v-15.8c0-4.5,3.7-8.2,8.2-8.2h27.9c4.5,0,8.2,3.7,8.2,8.2V192&#10;&#9;&#9;&#9;C746.9,196.5,743.3,200.2,738.7,200.2z M710.9,173.3c-1.5,0-2.8,1.3-2.8,2.8V192c0,1.5,1.3,2.8,2.8,2.8h27.9&#10;&#9;&#9;&#9;c1.5,0,2.8-1.3,2.8-2.8v-15.8c0-1.5-1.3-2.8-2.8-2.8H710.9z" style="fill: rgb(65, 40, 19);" transform="matrix(1, 0, 0, 1, -503.27964782714844, -138.88727569580078)"/><path class="st15" d="M685.2,197.5h-27.9c-3,0-5.5-2.5-5.5-5.5v-15.8c0-3,2.5-5.5,5.5-5.5h27.9c3,0,5.5,2.5,5.5,5.5V192&#10;&#9;&#9;&#9;C690.7,195,688.3,197.5,685.2,197.5z" style="fill: rgb(214, 238, 239);" transform="matrix(1, 0, 0, 1, -503.27964782714844, -138.88727569580078)"/><path class="st1" d="M685.2,200.2h-27.9c-4.5,0-8.2-3.7-8.2-8.2v-15.8c0-4.5,3.7-8.2,8.2-8.2h27.9c4.5,0,8.2,3.7,8.2,8.2V192&#10;&#9;&#9;&#9;C693.4,196.5,689.8,200.2,685.2,200.2z M657.4,173.3c-1.5,0-2.8,1.3-2.8,2.8V192c0,1.5,1.3,2.8,2.8,2.8h27.9&#10;&#9;&#9;&#9;c1.5,0,2.8-1.3,2.8-2.8v-15.8c0-1.5-1.3-2.8-2.8-2.8H657.4z" style="fill: rgb(65, 40, 19);" transform="matrix(1, 0, 0, 1, -503.27964782714844, -138.88727569580078)"/><path class="st15" d="M631.7,197.5H557c-0.2,0-0.3,0-0.5,0c-3.8-0.3-5.5-4.9-3.1-7.8c4.6-5.5,15.9-19,18.3-19h60.1&#10;&#9;&#9;&#9;c3,0,5.5,2.5,5.5,5.5V192C637.2,195,634.8,197.5,631.7,197.5z" style="fill: rgb(214, 238, 239);" transform="matrix(1, 0, 0, 1, -503.27964782714844, -138.88727569580078)"/><path class="st1" d="M631.7,200.2H557c-0.3,0-0.5,0-0.7,0c-2.7-0.2-5-1.9-6-4.5c-1.1-2.6-0.7-5.6,1.1-7.8&#10;&#9;&#9;&#9;c16.4-19.9,18.8-19.9,20.4-19.9h60.1c4.5,0,8.2,3.7,8.2,8.2V192C639.9,196.5,636.3,200.2,631.7,200.2z M572.1,173.3&#10;&#9;&#9;&#9;c-1.4,0.8-6.2,5.4-16.6,18c-0.8,0.9-0.4,2-0.3,2.3c0.2,0.4,0.6,1.1,1.6,1.2c0.1,0,0.2,0,0.3,0h74.8c1.5,0,2.8-1.3,2.8-2.8v-15.8&#10;&#9;&#9;&#9;c0-1.5-1.3-2.8-2.8-2.8H572.1z M572.2,173.2" style="fill: rgb(65, 40, 19);" transform="matrix(1, 0, 0, 1, -503.27964782714844, -138.88727569580078)"/><path class="st11" d="M892.5,291.5h-20c-3.4,0-6.2-2.8-6.2-6.2v-3.1c0-3.4,2.8-6.2,6.2-6.2h20c3.4,0,6.2,2.8,6.2,6.2v3.1&#10;&#9;&#9;&#9;C898.7,288.7,895.9,291.5,892.5,291.5z" style="fill: rgb(255, 255, 255);" transform="matrix(1, 0, 0, 1, -503.27964782714844, -138.88727569580078)"/><path class="st1" d="M892.5,294.2h-20c-4.9,0-8.9-4-8.9-8.9v-3.1c0-4.9,4-8.9,8.9-8.9h20c4.9,0,8.9,4,8.9,8.9v3.1&#10;&#9;&#9;&#9;C901.4,290.2,897.4,294.2,892.5,294.2z M872.5,278.8c-1.9,0-3.5,1.6-3.5,3.5v3.1c0,1.9,1.6,3.5,3.5,3.5h20c1.9,0,3.5-1.6,3.5-3.5&#10;&#9;&#9;&#9;v-3.1c0-1.9-1.6-3.5-3.5-3.5H872.5z" style="fill: rgb(65, 40, 19);" transform="matrix(1, 0, 0, 1, -503.27964782714844, -138.88727569580078)"/><path class="st11" d="M560.1,291.5h-40.7c-3.4,0-6.2-2.8-6.2-6.2v-3.1c0-3.4,2.8-6.2,6.2-6.2h40.7c3.4,0,6.2,2.8,6.2,6.2v3.1&#10;&#9;&#9;&#9;C566.3,288.7,563.5,291.5,560.1,291.5z" style="fill: rgb(255, 255, 255);" transform="matrix(1, 0, 0, 1, -503.27964782714844, -138.88727569580078)"/><path class="st1" d="M560.1,294.2h-40.7c-4.9,0-8.9-4-8.9-8.9v-3.1c0-4.9,4-8.9,8.9-8.9h40.7c4.9,0,8.9,4,8.9,8.9v3.1&#10;&#9;&#9;&#9;C569,290.2,565,294.2,560.1,294.2z M519.4,278.8c-1.9,0-3.5,1.6-3.5,3.5v3.1c0,1.9,1.6,3.5,3.5,3.5h40.7c1.9,0,3.5-1.6,3.5-3.5&#10;&#9;&#9;&#9;v-3.1c0-1.9-1.6-3.5-3.5-3.5H519.4z" style="fill: rgb(65, 40, 19);" transform="matrix(1, 0, 0, 1, -503.27964782714844, -138.88727569580078)"/><path class="st1" d="M855.1,213.7h-26.6c-1.5,0-2.7-1.2-2.7-2.7c0-1.5,1.2-2.7,2.7-2.7h26.6c1.5,0,2.7,1.2,2.7,2.7&#10;&#9;&#9;&#9;C857.8,212.5,856.6,213.7,855.1,213.7z" style="fill: rgb(65, 40, 19);" transform="matrix(1, 0, 0, 1, -503.27964782714844, -138.88727569580078)"/><path class="st1" d="M855.1,221.3h-26.6c-1.5,0-2.7-1.2-2.7-2.7c0-1.5,1.2-2.7,2.7-2.7h26.6c1.5,0,2.7,1.2,2.7,2.7&#10;&#9;&#9;&#9;C857.8,220.1,856.6,221.3,855.1,221.3z" style="fill: rgb(65, 40, 19);" transform="matrix(1, 0, 0, 1, -503.27964782714844, -138.88727569580078)"/><path class="st1" d="M855.1,228.9h-26.6c-1.5,0-2.7-1.2-2.7-2.7c0-1.5,1.2-2.7,2.7-2.7h26.6c1.5,0,2.7,1.2,2.7,2.7&#10;&#9;&#9;&#9;C857.8,227.6,856.6,228.9,855.1,228.9z" style="fill: rgb(65, 40, 19);" transform="matrix(1, 0, 0, 1, -503.27964782714844, -138.88727569580078)"/><path class="st1" d="M855.1,236.4h-26.6c-1.5,0-2.7-1.2-2.7-2.7c0-1.5,1.2-2.7,2.7-2.7h26.6c1.5,0,2.7,1.2,2.7,2.7&#10;&#9;&#9;&#9;C857.8,235.2,856.6,236.4,855.1,236.4z" style="fill: rgb(65, 40, 19);" transform="matrix(1, 0, 0, 1, -503.27964782714844, -138.88727569580078)"/><path class="st1" d="M855.1,244h-26.6c-1.5,0-2.7-1.2-2.7-2.7c0-1.5,1.2-2.7,2.7-2.7h26.6c1.5,0,2.7,1.2,2.7,2.7&#10;&#9;&#9;&#9;C857.8,242.8,856.6,244,855.1,244z" style="fill: rgb(65, 40, 19);" transform="matrix(1, 0, 0, 1, -503.27964782714844, -138.88727569580078)"/><path class="st1" d="M686.8,321.9H497c-1.5,0-2.7-1.2-2.7-2.7c0-1.5,1.2-2.7,2.7-2.7h189.8c1.5,0,2.7,1.2,2.7,2.7&#10;&#9;&#9;&#9;C689.5,320.7,688.3,321.9,686.8,321.9z" style="fill: rgb(65, 40, 19);" transform="matrix(1, 0, 0, 1, -503.27964782714844, -138.88727569580078)"/><path class="st1" d="M903,321.9H736.9c-1.5,0-2.7-1.2-2.7-2.7c0-1.5,1.2-2.7,2.7-2.7H903c1.5,0,2.7,1.2,2.7,2.7&#10;&#9;&#9;&#9;C905.7,320.7,904.5,321.9,903,321.9z" style="fill: rgb(65, 40, 19);" transform="matrix(1, 0, 0, 1, -503.27964782714844, -138.88727569580078)"/><path class="st1" d="M718.4,321.9H705c-1.5,0-2.7-1.2-2.7-2.7c0-1.5,1.2-2.7,2.7-2.7h13.4c1.5,0,2.7,1.2,2.7,2.7&#10;&#9;&#9;&#9;C721.1,320.7,719.9,321.9,718.4,321.9z" style="fill: rgb(65, 40, 19);" transform="matrix(1, 0, 0, 1, -503.27964782714844, -138.88727569580078)"/><path d="M 630.000012 206.199997 A 3.3 3.3 0 0 1 626.700012 209.499997 A 3.3 3.3 0 0 1 623.400012 206.199997 A 3.3 3.3 0 0 1 626.700012 202.899997 A 3.3 3.3 0 0 1 630.000012 206.199997 Z" class="st1" style="fill: rgb(65, 40, 19);" transform="matrix(1, 0, 0, 1, -503.27964782714844, -138.88727569580078)"/><path d="M 885.8 180.800003 A 3.3 3.3 0 0 1 882.5 184.100003 A 3.3 3.3 0 0 1 879.2 180.800003 A 3.3 3.3 0 0 1 882.5 177.500003 A 3.3 3.3 0 0 1 885.8 180.800003 Z" class="st1" style="fill: rgb(65, 40, 19);" transform="matrix(1, 0, 0, 1, -503.27964782714844, -138.88727569580078)"/><path d="M 788.500012 170.600006 A 3.3 3.3 0 0 1 785.200012 173.900006 A 3.3 3.3 0 0 1 781.900012 170.600006 A 3.3 3.3 0 0 1 785.200012 167.300006 A 3.3 3.3 0 0 1 788.500012 170.600006 Z" class="st1" style="fill: rgb(65, 40, 19);" transform="matrix(1, 0, 0, 1, -503.27964782714844, -138.88727569580078)"/><path class="st1" d="M792.2,200.2h-27.9c-4.5,0-8.2-3.7-8.2-8.2v-15.8c0-4.5,3.7-8.2,8.2-8.2h8c1.5,0,2.7,1.2,2.7,2.7&#10;&#9;&#9;&#9;c0,1.5-1.2,2.7-2.7,2.7h-8c-1.5,0-2.8,1.3-2.8,2.8V192c0,1.5,1.3,2.8,2.8,2.8h27.9c1.5,0,2.8-1.3,2.8-2.8v-15.8&#10;&#9;&#9;&#9;c0-1.5,1.2-2.7,2.7-2.7c1.5,0,2.7,1.2,2.7,2.7V192C800.4,196.5,796.8,200.2,792.2,200.2z" style="fill: rgb(65, 40, 19);" transform="matrix(1, 0, 0, 1, -503.27964782714844, -138.88727569580078)"/><path class="st1" d="M571.7,200.2c-1.5,0-2.7-1.2-2.7-2.7v-26.8c0-1.5,1.2-2.7,2.7-2.7c1.5,0,2.7,1.2,2.7,2.7v26.8&#10;&#9;&#9;&#9;C574.4,198.9,573.1,200.2,571.7,200.2z" style="fill: rgb(65, 40, 19);" transform="matrix(1, 0, 0, 1, -503.27964782714844, -138.88727569580078)"/>
</svg>